<?xml version="1.0" standalone="no"?>
<!DOCTYPE svg PUBLIC "-//W3C//DTD SVG 20010904//EN"
 "http://www.w3.org/TR/2001/REC-SVG-20010904/DTD/svg10.dtd">
<svg version="1.0" xmlns="http://www.w3.org/2000/svg"
 width="1853.000000pt" height="1377.000000pt" viewBox="0 0 1853.000000 1377.000000"
 preserveAspectRatio="xMidYMid meet">
<metadata>
Created by potrace 1.10, written by Peter Selinger 2001-2011
</metadata>
<g transform="translate(0.000000,1377.000000) scale(0.100000,-0.100000)"
fill="#000000" stroke="none">
<path d="M11115 13487 c-22 -19 -51 -56 -64 -82 -28 -56 -29 -100 -7 -400 8
-104 12 -165 21 -290 3 -49 8 -108 10 -130 6 -66 15 -175 20 -250 3 -38 7 -95
10 -125 3 -30 7 -81 10 -113 3 -33 7 -80 9 -105 3 -26 8 -81 12 -122 4 -41 8
-86 10 -100 1 -14 5 -47 8 -75 3 -27 7 -59 10 -70 2 -11 7 -40 10 -65 3 -25 8
-54 10 -65 2 -11 7 -40 11 -65 5 -37 23 -133 51 -285 2 -11 11 -54 19 -95 8
-41 17 -84 19 -95 2 -11 12 -56 21 -100 9 -44 19 -91 21 -105 3 -14 9 -38 14
-55 4 -16 12 -48 16 -70 9 -49 6 -35 42 -177 l30 -117 -67 -21 c-245 -78 -288
-92 -301 -95 -8 -2 -53 -16 -100 -30 -47 -14 -155 -46 -240 -71 -191 -56 -383
-120 -432 -145 -43 -22 -65 -51 -74 -96 -13 -65 46 -113 138 -113 45 0 102 15
265 71 338 115 772 259 784 259 8 0 10 -30 5 -104 -4 -58 -8 -113 -10 -123 -2
-10 -7 -58 -11 -107 -4 -50 -8 -97 -10 -105 -1 -9 -6 -47 -10 -84 -3 -37 -8
-77 -10 -87 -2 -10 -6 -45 -10 -77 -20 -191 -54 -323 -91 -352 -31 -25 -68
-21 -180 17 -83 29 -96 31 -145 22 -87 -17 -127 -53 -188 -170 -37 -71 -85
-129 -99 -122 -4 2 -15 8 -25 13 -30 17 -92 157 -152 343 -31 99 -67 203 -79
230 -28 63 -90 124 -133 132 -18 3 -36 11 -41 18 -5 6 -28 72 -51 146 -48 152
-129 360 -191 495 -145 311 -276 561 -349 670 -267 394 -349 498 -520 659 -36
34 -72 68 -81 77 -9 9 -56 47 -103 85 -154 124 -315 208 -482 252 -73 19 -105
25 -190 38 -16 3 -40 7 -51 9 -120 26 -482 26 -615 0 -13 -3 -60 -12 -104 -20
-260 -47 -513 -124 -750 -230 -277 -123 -662 -315 -945 -472 -452 -251 -1132
-696 -1450 -949 -8 -7 -73 -59 -145 -115 -238 -188 -602 -496 -778 -659 -248
-228 -740 -722 -956 -959 -13 -14 -47 -51 -75 -81 -28 -31 -80 -89 -116 -130
-36 -41 -70 -79 -76 -85 -6 -5 -37 -41 -70 -80 -32 -38 -64 -74 -70 -80 -10
-10 -158 -182 -205 -239 -13 -16 -38 -46 -55 -65 -102 -117 -457 -570 -551
-702 -172 -242 -378 -560 -508 -784 -52 -90 -155 -288 -155 -299 0 -2 -15 -37
-34 -78 -77 -167 -236 -643 -260 -778 -3 -19 -8 -46 -11 -60 -12 -57 -7 -199
10 -256 59 -206 203 -328 447 -379 103 -22 362 -22 553 0 17 2 62 6 100 10 94
9 129 13 255 31 276 40 1056 258 1630 456 80 27 170 58 200 68 166 56 804 326
1210 512 36 17 126 57 200 90 74 33 167 75 205 93 39 18 93 43 120 55 28 12
77 35 110 50 33 15 112 51 175 80 63 29 149 68 190 87 72 34 138 65 280 131
495 229 2288 1122 2565 1277 566 316 776 454 982 647 228 215 372 410 388 528
9 62 -7 79 -91 100 -73 18 -258 21 -364 5 -97 -13 -162 -63 -144 -109 14 -36
118 -48 276 -31 61 6 67 5 77 -14 19 -35 -26 -97 -150 -206 -195 -173 -787
-539 -1409 -872 -180 -97 -451 -243 -520 -281 -376 -205 -1094 -559 -1825
-899 -414 -193 -436 -203 -441 -203 -2 0 -36 -15 -76 -34 -147 -68 -230 -106
-233 -106 -3 0 -33 -13 -67 -29 -35 -15 -97 -43 -138 -61 -41 -18 -103 -46
-138 -61 -34 -16 -66 -29 -70 -29 -4 0 -20 -7 -37 -16 -43 -22 -489 -210 -700
-294 -344 -137 -819 -311 -1075 -392 -648 -206 -989 -296 -1190 -313 -19 -2
-51 -5 -70 -9 -19 -3 -75 -8 -125 -11 -49 -4 -112 -9 -140 -11 -136 -13 -400
-11 -459 3 -105 24 -170 74 -206 157 -25 55 -31 102 -31 221 0 254 26 391 116
606 44 104 258 530 320 636 135 230 533 797 782 1113 154 195 398 498 413 510
3 3 39 46 80 95 41 50 77 92 80 95 4 3 60 66 124 140 474 542 1064 1119 1541
1505 61 49 112 92 115 95 3 3 25 21 50 40 25 19 52 40 60 47 92 74 341 267
435 338 66 50 122 93 125 96 9 11 264 185 375 256 113 72 358 216 500 293 109
59 378 206 443 242 257 142 736 351 1021 444 120 40 311 80 426 89 44 4 118
10 165 14 164 14 396 6 495 -18 238 -57 386 -134 570 -295 256 -223 495 -498
609 -701 9 -16 35 -61 57 -100 97 -171 198 -397 336 -750 40 -104 77 -199 82
-210 46 -109 143 -373 199 -545 64 -194 86 -269 177 -610 41 -151 79 -288 84
-305 20 -62 53 -196 50 -199 -2 -2 -85 -38 -184 -81 -889 -382 -1588 -762
-2545 -1382 -285 -185 -750 -532 -934 -698 -6 -5 -34 -28 -61 -49 -28 -22 -57
-47 -66 -55 -8 -9 -38 -35 -65 -58 -558 -472 -1282 -1224 -1682 -1748 -75 -98
-232 -358 -295 -486 -71 -146 -86 -303 -38 -397 45 -89 180 -143 351 -143 58
0 115 3 127 5 12 3 48 7 80 11 141 15 292 73 344 133 25 28 29 39 23 70 -12
74 -66 88 -183 50 -46 -15 -137 -35 -246 -52 -57 -10 -207 -16 -231 -10 -61
15 -74 124 -30 254 42 122 214 386 463 707 82 106 120 152 226 273 145 166
622 651 793 807 158 145 343 303 539 458 55 44 106 86 115 92 328 268 966 741
1210 898 41 27 102 66 135 88 33 22 74 48 90 57 17 10 89 53 160 97 450 275
1080 600 1684 869 129 58 243 106 254 107 18 2 25 -15 59 -148 22 -82 41 -157
43 -165 2 -8 13 -53 25 -100 12 -47 23 -92 25 -100 2 -9 26 -110 53 -225 68
-280 99 -410 112 -470 7 -27 14 -58 16 -67 2 -10 6 -27 9 -39 2 -11 6 -28 9
-37 3 -9 7 -28 10 -42 2 -14 9 -44 15 -66 6 -23 15 -62 20 -85 5 -24 41 -181
80 -349 40 -168 78 -334 86 -370 8 -36 33 -141 55 -235 22 -93 54 -228 70
-300 16 -71 45 -197 65 -280 19 -82 37 -161 40 -175 3 -14 18 -80 34 -147 17
-67 32 -132 35 -145 2 -13 23 -98 45 -190 22 -92 43 -178 45 -190 5 -26 33
-145 105 -438 46 -191 219 -917 226 -950 2 -8 15 -64 30 -125 61 -257 96 -424
110 -524 3 -19 7 -46 10 -60 6 -37 24 -164 30 -219 3 -26 8 -58 10 -72 2 -14
11 -83 20 -155 17 -146 22 -182 30 -240 5 -44 10 -82 20 -165 47 -406 121
-649 211 -686 45 -19 79 -9 109 30 41 55 49 178 20 326 -3 14 -7 41 -11 60 -3
19 -9 55 -14 80 -5 25 -19 97 -30 160 -12 63 -28 149 -36 190 -7 41 -16 89
-19 105 -34 198 -67 381 -75 425 -5 30 -19 105 -30 165 -10 61 -22 124 -25
140 -3 17 -10 57 -15 90 -15 91 -18 108 -51 270 -17 83 -41 197 -54 255 -13
58 -26 116 -29 130 -5 27 -35 158 -91 395 -20 83 -37 159 -39 170 -2 11 -11
47 -19 80 -9 33 -18 71 -21 85 -2 14 -23 104 -46 200 -50 210 -31 127 -139
605 -108 474 -131 572 -334 1375 -86 338 -158 626 -161 640 -2 14 -27 129 -55
255 -29 127 -54 244 -57 260 -3 17 -21 107 -40 200 -19 94 -37 181 -40 195
-13 65 -137 577 -164 674 -16 61 -28 111 -27 112 4 4 355 144 504 200 412 157
932 331 1368 459 348 102 656 187 725 201 14 2 39 9 55 14 17 5 41 11 55 14
14 2 54 12 90 21 36 9 72 18 80 20 8 2 71 18 140 35 69 18 135 34 147 36 12 2
102 24 200 48 198 49 243 58 243 50 0 -2 -6 -15 -14 -27 -50 -77 -63 -327 -32
-597 3 -19 7 -62 11 -95 4 -33 8 -76 11 -95 8 -72 14 -126 20 -170 2 -25 7
-65 9 -90 3 -25 7 -61 10 -80 3 -19 8 -53 10 -75 3 -22 7 -57 10 -77 3 -21 8
-57 11 -80 10 -81 52 -325 60 -350 3 -10 7 -30 10 -45 3 -16 14 -71 25 -123
11 -52 32 -147 45 -210 29 -135 48 -216 75 -324 11 -43 22 -86 24 -95 10 -42
87 -325 109 -396 28 -89 114 -383 126 -430 4 -16 28 -100 53 -185 25 -85 80
-274 122 -420 l77 -265 -6 -167 c-4 -92 -8 -173 -10 -180 -3 -7 -7 -36 -10
-64 -5 -43 -23 -143 -40 -219 -24 -110 -84 -323 -108 -382 -44 -109 -124 -248
-163 -282 -87 -76 -208 -52 -337 67 l-60 56 6 71 c3 38 8 81 11 94 25 130 25
548 0 786 -1 17 -6 59 -9 95 -4 36 -9 76 -11 90 -2 14 -6 45 -10 70 -16 111
-25 161 -30 180 -2 8 -7 34 -10 58 -6 46 -74 314 -106 426 -12 38 -22 76 -24
85 -23 106 -176 585 -462 1441 -131 393 -272 759 -352 919 -30 59 -30 59 -68
54 -50 -7 -80 -24 -125 -70 -41 -42 -73 -107 -83 -168 -6 -45 -7 -347 0 -472
7 -132 15 -246 19 -283 3 -19 7 -62 11 -95 16 -166 122 -648 194 -890 25 -81
88 -318 95 -355 2 -14 14 -63 25 -110 11 -47 22 -96 25 -110 2 -14 12 -56 21
-95 9 -38 19 -79 21 -90 3 -20 10 -50 75 -325 29 -126 68 -277 118 -463 24
-86 146 -461 161 -492 5 -11 21 -49 36 -85 38 -93 73 -156 149 -260 l66 -92
-6 -53 c-15 -120 -84 -153 -134 -65 -8 14 -40 99 -71 190 -63 180 -114 310
-161 401 -47 93 -129 160 -175 142 -23 -9 -62 -69 -77 -119 -23 -77 -15 -157
40 -434 48 -242 53 -273 77 -458 13 -107 14 -191 2 -211 -4 -6 -23 -11 -42
-11 -31 0 -46 10 -113 78 -181 182 -272 341 -420 737 -23 61 -46 119 -51 130
-27 59 -99 278 -105 316 -3 24 -8 51 -11 60 -2 9 -7 32 -9 50 -3 19 -7 45 -10
59 -3 14 -8 41 -11 60 -3 19 -12 64 -20 100 -7 36 -16 76 -18 90 -7 39 -61
286 -110 505 -62 276 -174 767 -191 840 -14 59 -79 362 -161 750 -2 11 -11 54
-19 95 -21 103 -20 101 -49 230 -14 63 -27 126 -30 140 -24 125 -72 314 -91
357 -30 66 -79 139 -108 157 -34 22 -74 8 -126 -43 -78 -78 -85 -100 -77 -275
3 -83 8 -167 10 -186 2 -19 7 -64 10 -100 4 -36 8 -76 10 -90 3 -14 7 -56 11
-93 3 -37 8 -76 10 -85 1 -9 6 -44 9 -77 4 -33 9 -67 11 -75 2 -8 6 -36 10
-62 16 -132 81 -406 164 -688 44 -153 71 -239 165 -530 37 -113 85 -268 107
-345 67 -234 201 -657 349 -1105 27 -80 51 -167 54 -195 4 -27 8 -61 11 -75 5
-31 13 -97 20 -175 3 -33 8 -76 10 -95 2 -19 7 -78 11 -130 3 -52 8 -120 11
-150 2 -30 6 -347 8 -704 3 -357 7 -657 10 -667 10 -31 73 -79 93 -71 35 14
70 48 93 92 l24 45 0 440 c-1 384 -8 740 -20 885 l-3 45 37 -80 c67 -143 162
-274 233 -323 35 -23 86 -47 128 -57 3 -1 12 -4 20 -8 109 -44 235 -33 298 26
37 34 48 63 91 231 21 87 41 159 43 161 2 3 26 -2 53 -10 26 -8 81 -15 121
-16 130 -2 186 43 230 184 10 31 21 57 26 57 5 0 26 -11 46 -25 92 -61 260
-90 382 -66 141 28 288 153 358 304 67 144 149 402 187 590 l19 89 54 -114
c100 -209 199 -319 360 -396 81 -39 104 -46 174 -50 l81 -5 -50 -46 c-71 -65
-130 -118 -197 -176 -32 -27 -68 -59 -80 -69 -43 -39 -254 -204 -326 -256
-142 -102 -271 -190 -281 -190 -5 0 -9 -4 -9 -10 0 -5 -6 -10 -14 -10 -8 0
-16 -4 -18 -8 -1 -4 -88 -61 -191 -126 -193 -122 -262 -175 -255 -198 7 -24
90 -60 126 -54 41 6 220 92 332 159 209 124 559 373 770 546 112 92 151 127
294 263 50 47 112 106 137 130 568 537 771 753 965 1028 98 140 357 528 427
641 198 321 304 548 522 1125 71 185 138 409 161 529 45 245 56 367 56 645 0
190 -4 253 -28 405 -15 91 -54 221 -98 320 -178 402 -239 487 -474 654 -249
177 -416 256 -752 355 -94 28 -197 48 -320 61 -308 34 -608 37 -1020 10 -96
-6 -220 -16 -260 -20 -19 -2 -66 -7 -105 -10 -38 -4 -81 -8 -95 -10 -14 -2
-43 -6 -65 -10 -22 -3 -60 -7 -85 -9 -151 -15 -567 -83 -835 -137 -277 -56
-761 -173 -1110 -268 -131 -36 -231 -58 -245 -55 -201 46 -399 163 -573 340
-160 162 -271 378 -426 828 -28 82 -50 150 -49 151 2 1 64 21 138 45 131 41
373 122 476 160 80 29 162 48 239 56 146 13 185 32 185 86 0 76 -61 103 -212
95 -176 -10 -328 -43 -618 -136 -250 -80 -280 -89 -280 -84 0 3 -11 46 -24 96
-40 151 -84 390 -121 658 -10 75 -28 197 -45 299 -10 63 -21 129 -23 145 -3
17 -10 62 -17 100 -6 39 -13 84 -16 100 -2 17 -9 55 -14 85 -5 30 -12 75 -15
100 -3 25 -8 52 -10 60 -2 8 -6 38 -10 65 -3 28 -8 61 -10 75 -13 83 -21 231
-30 510 -21 698 -22 710 -34 742 -13 34 -50 58 -98 65 -33 4 -44 0 -78 -30z
m545 -3837 c56 -141 150 -332 197 -402 119 -176 322 -364 486 -448 37 -19 67
-38 67 -41 0 -3 -42 -18 -92 -34 -153 -46 -717 -237 -873 -295 -237 -88 -404
-152 -600 -230 -125 -49 -228 -90 -230 -90 -2 0 -7 15 -10 33 -4 17 -36 135
-71 261 -36 126 -62 231 -59 234 3 3 13 -2 23 -11 10 -9 44 -28 76 -43 137
-63 251 2 301 173 12 40 23 56 49 73 65 39 97 33 183 -37 166 -134 329 -48
411 217 25 83 38 168 62 405 6 61 12 126 15 145 2 19 7 72 11 118 3 45 8 81 9
80 1 -2 22 -50 45 -108z m4615 -445 c22 -3 90 -12 150 -20 286 -38 467 -83
730 -179 131 -48 204 -89 353 -198 191 -140 251 -206 370 -410 106 -180 153
-302 171 -443 11 -93 6 -655 -7 -760 -35 -261 -128 -622 -229 -885 -108 -282
-198 -462 -386 -775 -104 -174 -379 -601 -397 -615 -3 -3 -28 -36 -55 -75
-185 -265 -408 -525 -707 -826 -100 -100 -108 -106 -108 -79 0 129 -110 142
-176 20 -29 -52 -76 -90 -113 -90 -40 0 -97 38 -177 117 -72 70 -88 93 -151
218 -135 265 -257 610 -277 780 -4 28 -8 61 -11 75 -6 34 -13 77 -20 125 -8
55 -51 336 -70 465 -3 14 -7 43 -10 65 -3 22 -10 65 -15 95 -5 30 -12 73 -16
95 -16 109 -84 446 -159 790 -20 94 -38 177 -40 185 -26 125 -77 361 -81 380
-3 14 -7 32 -9 40 -12 58 -84 390 -122 560 -25 113 -47 216 -49 229 -3 12 -12
53 -20 90 -9 36 -17 73 -19 81 -18 83 -51 224 -71 305 -13 55 -26 109 -29 120
-23 111 -66 268 -80 300 -9 18 -25 41 -36 51 -10 9 -19 20 -19 25 0 6 66 20
165 34 22 3 51 8 65 10 14 3 45 7 70 10 25 3 55 7 68 10 13 2 51 7 85 10 34 3
116 12 182 21 161 19 189 22 265 30 36 3 76 7 90 10 14 2 75 7 135 10 61 3
112 8 114 10 6 6 601 -4 646 -11z m-2893 -2014 c31 -72 41 -96 43 -101 1 -3
29 -90 64 -195 35 -104 64 -197 66 -205 5 -22 106 -351 190 -620 40 -129 94
-309 119 -400 25 -91 50 -178 55 -195 33 -102 113 -476 131 -615 6 -47 13 -98
16 -115 18 -122 30 -755 15 -755 -11 0 -103 204 -135 302 -21 64 -57 188 -71
248 -2 8 -17 71 -34 140 -16 69 -32 136 -35 150 -2 14 -10 48 -16 75 -6 28
-13 59 -16 70 -2 11 -8 40 -14 65 -5 25 -44 196 -85 380 -42 184 -92 405 -111
490 -20 85 -37 162 -39 170 -2 8 -13 56 -25 105 -12 50 -23 97 -25 105 -2 8
-13 50 -24 93 -27 100 -77 337 -85 402 -3 28 -8 59 -10 70 -2 11 -7 51 -11 88
-3 37 -8 78 -11 90 -7 37 -7 194 0 206 11 18 26 3 48 -48z"/>
</g>
</svg>
