<svg width="512" height="512" viewBox="0 0 512 512" fill="none" xmlns="http://www.w3.org/2000/svg">
<path d="M117.333 149.333H352C357.896 149.333 362.667 144.562 362.667 138.666C362.667 132.77 357.896 127.999 352 127.999H117.333C111.437 127.999 106.666 132.77 106.666 138.666C106.667 144.563 111.438 149.333 117.333 149.333Z" fill="#F53840"/>
<path d="M245.333 256H117.333C111.437 256 106.666 260.771 106.666 266.667C106.666 272.563 111.437 277.334 117.333 277.334H245.333C251.229 277.334 256 272.563 256 266.667C256 260.771 251.229 256 245.333 256Z" fill="#F53840"/>
<path d="M471.167 64C470.549 64 469.95 64.155 469.334 64.184V64C469.334 40.469 450.188 21.333 426.667 21.333H42.667C19.146 21.333 0 40.469 0 64V480C0 484.313 2.604 488.208 6.583 489.854C7.896 490.406 9.291 490.667 10.666 490.667C13.437 490.667 16.166 489.584 18.208 487.542L121.75 384H426.667C450.188 384 469.334 364.865 469.334 341.333V164.411L500.042 133.708C500.042 133.708 500.042 133.708 500.042 133.698C507.646 126.094 512 115.573 512 104.833C512 82.313 493.688 64 471.167 64ZM448 341.333C448 353.093 438.437 362.666 426.667 362.666H117.333C114.5 362.666 111.791 363.791 109.791 365.791L21.333 454.25V64C21.333 52.24 30.896 42.667 42.666 42.667H426.666C438.438 42.667 448 52.24 448 64V71.286C445.975 72.678 444.038 74.209 442.292 75.958L326.232 192H117.333C111.437 192 106.666 196.771 106.666 202.667C106.666 208.563 111.437 213.334 117.333 213.334H309.118L298.875 264.574C298.167 268.074 299.271 271.689 301.792 274.209C303.813 276.23 306.542 277.334 309.334 277.334C310.022 277.334 310.73 277.261 311.417 277.126L364.73 266.459C366.813 266.042 368.709 265.032 370.188 263.542L448 185.742V341.333ZM357.396 246.177L322.938 253.073L329.834 218.573L426.662 121.745L454.249 149.332L357.396 246.177ZM484.958 118.625L469.333 134.25L441.744 106.661L457.374 91.031C460.999 87.416 466.02 85.333 471.166 85.333C481.916 85.333 490.666 94.083 490.666 104.833C490.667 109.958 488.583 114.99 484.958 118.625Z" fill="#F53840"/>
</svg>
