<svg width="751" height="821" viewBox="0 0 751 821" fill="none" xmlns="http://www.w3.org/2000/svg">
<path d="M640.43 243.23C637.38 312.83 632.35 381.86 608.61 448.23C569.61 557.23 499.66 640.23 400.16 698.92C384.44 708.19 371.23 707.92 355.48 698.41C212.93 612.11 136.57 485.15 122.27 320.13C118.97 281.98 118.56 243.59 116.15 205.35C115.32 192.15 119.96 186.24 133.27 184.78C216.27 175.71 295.27 152.6 369.83 114.7C374.75 112.2 383.21 112.5 388.25 115.03C461.96 152.03 539.65 175.45 621.62 184.26C637.43 185.96 642.38 193.12 640.68 208.26C639.39 219.81 640.43 231.58 640.43 243.23ZM169.49 301.57H171.49C171.9 308.22 172.25 314.88 172.72 321.57C173.23 328.77 173.72 335.98 174.44 343.17C187.12 471.63 247.22 570.53 357.61 638.59C372.32 647.66 384.4 647.59 398.9 638.75C477.26 590.98 532.31 524.65 562.9 437.82C584.95 375.27 584.57 310.13 587.58 245.29C588.15 232.95 579.91 230.92 570.39 229.82C507.355 222.58 446.056 204.454 389.22 176.25C384.01 173.68 375.57 172.7 370.7 175.13C311.955 204.529 248.443 223.227 183.14 230.35C173.14 231.46 168.74 235.91 169.22 246.66C170.07 264.9 169.49 283.25 169.49 301.57Z" fill="#F53840"/>
<path d="M379.51 350C400.63 350 421.75 350.2 442.87 349.93C456.87 349.75 463.27 356.22 463.23 370.1C463.1 411.24 463.01 452.37 463.31 493.51C463.39 505.08 458.6 511.86 447.95 516.33C402.05 535.58 356.37 536.33 310.28 516.89C299.21 512.21 293.64 505.82 293.79 493.21C294.3 452.64 294.24 412.05 293.85 371.48C293.7 355.71 300.72 349.48 316.14 349.88C337.26 350.42 358.39 350 379.51 350ZM395.17 476.9C394.61 471.78 394.17 468.52 393.91 465.26C392.28 447.51 380.46 429.91 394.76 411.69C396.82 409.06 391.93 396.69 387.4 394.31C382.06 391.55 371.71 392.49 367.06 396.22C363.06 399.43 360.63 411.88 363.39 414.92C373.21 425.75 368.7 436.39 366.72 447.46C365.02 456.97 363.35 466.46 361.51 476.91L395.17 476.9Z" fill="#F53840"/>
<path d="M426.64 341.34C419.36 283.53 407.49 266.52 378.16 266.54C349.16 266.54 337.69 283.01 330.64 334.94C312.75 339.94 312.91 339.27 311.64 321.19C307.44 262.25 365.18 230.09 409.95 253.74C436.28 267.65 451.95 300.52 444.59 329.97C443.47 334.31 434.38 336.65 426.64 341.34Z" fill="#F53840"/>
<path d="M395.17 476.9H361.52C363.36 466.47 365.04 456.96 366.73 447.45C368.73 436.38 373.22 425.75 363.4 414.91C360.65 411.91 363.07 399.42 367.07 396.21C371.72 392.48 382.07 391.54 387.41 394.3C391.94 396.64 396.83 409.06 394.77 411.68C380.47 429.89 392.29 447.5 393.92 465.25C394.21 468.53 394.61 471.79 395.17 476.9Z" fill="white"/>
</svg>
