<svg id="Layer_1" data-name="Layer 1" xmlns="http://www.w3.org/2000/svg" viewBox="0 0 841.89 595.28"><title>iconass</title><path d="M79.69,173a60.63,60.63,0,0,1,2.79-6.92c4.37-8,11.09-12.36,20.33-12.48,4.55-.06,9.11-.12,13.66.08a3.73,3.73,0,0,1,2.74,1.83c1.93,4.64,3.6,9.39,5.41,14.25-14.13,8-15.09,9.57-18,31.59l-22-4.35-4.87-1Z"/><path d="M171.72,213.7c-12.64,5.71-25.8,6.48-39.13,4.95-6.26-.72-12.39-2.53-18.59-3.76-2-.39-2.78-1.21-2.72-3.35.16-5.62,0-11.25.09-16.87.29-12.74,10-22.26,22.82-22.35,4.79,0,9.58-.05,14.36,0a23.31,23.31,0,0,1,23.17,23.05C171.78,201.47,171.72,207.57,171.72,213.7Z"/><path d="M157.78,169.48l6.32-15.59c5.13,0,11.28-.66,17.23.15,10.6,1.44,18.67,10.93,19.08,21.61.23,5.85.17,11.73,0,17.58a4.27,4.27,0,0,1-2,3.16c-7,3-14.34,4.24-22.31,4.57C177,185.92,171.31,175,157.78,169.48Z"/><path d="M123.39,151.52A17.46,17.46,0,0,1,140.94,134a17.67,17.67,0,0,1,17.82,17.74,17.69,17.69,0,1,1-35.37-.18Z"/><path d="M110.33,151a17.7,17.7,0,1,1,17.19-19c.08,1.2-.78,2.57-1.47,3.7-1.85,3-4.68,5.74-5.56,9-1.24,4.58-4.23,5.58-8,6.18C111.66,150.91,110.81,150.92,110.33,151Z"/><path d="M178.91,140.62h6.76c-2.84,8.36-13.81,12.17-21.54,9.16a3.76,3.76,0,0,1-1.6-2.51c-1.12-5.27-4-9.35-8-12.88a5.52,5.52,0,0,1-1.5-4.19c.9-7.29,7.28-13.15,15-14.2A17.17,17.17,0,0,1,186,126.22h-7.09v14.4Z"/><path d="M183.41,137.85V129.3H199V113.52h7.11v15.6h17.21v8.55h-17v15.77h-7.11V137.85Z"/><path d="M411.13,375.91l-8.25-18.12c-4.87.5-8.64-2.17-8.58-7a6.68,6.68,0,0,1,4.94-6.36,6.81,6.81,0,0,1,7.42,2.7,6.43,6.43,0,0,1-.35,8c-1.29,1.35-1.1,2.36-.42,3.81,2.46,5.2,4.81,10.46,7.2,15.69.06.12.19.21.06.07,4.54-.77,8.87-2.06,13.22-2.13q22.05-.35,44.11.11c3.76.07,7.5,1.36,11.55,2.14,1.29-2.81,2.71-5.87,4.11-8.93,1.1-2.42,2.13-4.87,3.31-7.25a2.53,2.53,0,0,0-.46-3.41,6.6,6.6,0,0,1,1.16-9.75,6.83,6.83,0,0,1,9.73,1.81,6.68,6.68,0,0,1-2.39,9.56c-1.43.73-3.19.81-5.34,1.31l-7.84,17.2c4.38,3.27,8.89,6,12.66,9.58a39.92,39.92,0,0,1,12.81,27c.6,8.62,1.07,17.3-1.2,25.79a42.81,42.81,0,0,1-40.18,32.16c-14.53.57-29.13.5-43.66-.17-18.75-.87-35.54-16.08-38.68-34.64-1.74-10.31-2-20.8.81-31,3.34-12.17,11-21.07,22.1-26.95.52-.27,1.06-.52,1.58-.79A5.69,5.69,0,0,0,411.13,375.91Zm36.37,91.71v.17c6.43,0,12.86.06,19.3,0,19.29-.22,35.75-13.13,39.76-32,1.37-6.41,1.2-13.21,1.22-19.83a41.07,41.07,0,0,0-40.66-41.23q-19.52-.23-39,0a41,41,0,0,0-39.25,30.5c-2.26,8.41-1.78,17-1.11,25.57,1.5,19.25,18.16,35.66,37.38,36.74C432.55,468,440,467.62,447.5,467.62ZM396.56,351.06a4.49,4.49,0,1,0,4.39-4.57A4.46,4.46,0,0,0,396.56,351.06Zm102.11-.16a4.49,4.49,0,1,0-9,.32,4.49,4.49,0,0,0,9-.32Z"/><path d="M448.72,476.89h22.4a5.85,5.85,0,0,1,1.75.12c.34.11.8.64.76.92a1.66,1.66,0,0,1-.81,1.11,3.77,3.77,0,0,1-1.53.1H426.72a5.33,5.33,0,0,1-1.76-.07c-.46-.17-.78-.7-1.17-1.07.4-.36.75-.95,1.21-1a13.56,13.56,0,0,1,2.65-.06Z"/><path d="M457.64,447.34h-9c-6.5,0-13,.17-19.51-.1-16.06-.66-27.55-14.32-25.66-30.29,1.62-13.75,11.9-23.58,25.77-24,11.67-.33,23.36-.36,35,0,15.74.54,27.2,14.5,25.31,30.18q-2,16.47-17.41,22.56c-1.08.42-1.59.9-1.47,2,.31,2.85.44,5.72.94,8.54.36,2,.07,2.64-2,2.27-5.93-1.08-10.27-4-11.61-10.28A7.31,7.31,0,0,0,457.64,447.34Zm10.81,8.57c0-3.23,0-6.32,0-9.4A2.28,2.28,0,0,1,470.3,444c12.41-4.24,18.88-15.4,16.71-28.65-1.93-11.78-12.1-20.1-24.72-20.16q-16-.07-31.94,0c-16.39.1-27.83,14.59-24.24,30.61,2.58,11.49,12.07,19.12,24.14,19.25,9.09.1,18.19,0,27.28,0,1.67,0,2.45.37,2.7,2.26C460.88,452.14,463.85,455,468.45,455.91Z"/><path d="M404.87,396.91c-.2-1.25-.62-2.1-.36-2.45a23,23,0,0,1,13.35-8.89c.38-.09.92.47,1.38.72-.34.48-.57,1.18-1,1.41-2,1-4.18,1.57-6,2.75a48.24,48.24,0,0,0-5.35,4.59C406.38,395.46,405.93,395.91,404.87,396.91Z"/><path d="M469.24,426.87a6.76,6.76,0,1,1,6.76-6.75A6.72,6.72,0,0,1,469.24,426.87Zm0-2.27a4.49,4.49,0,1,0-4.63-4.36A4.52,4.52,0,0,0,469.27,424.6Z"/><path d="M446.35,426.86a6.77,6.77,0,1,1,7-6.8A6.77,6.77,0,0,1,446.35,426.86Zm.12-2.27a4.49,4.49,0,1,0-4.54-4.44A4.55,4.55,0,0,0,446.47,424.59Z"/><path d="M423.86,426.87a6.77,6.77,0,0,1-.32-13.54,6.77,6.77,0,1,1,.32,13.54Zm-.09-2.27a4.49,4.49,0,0,0,.07-9,4.5,4.5,0,1,0-.07,9Z"/><path d="M711.23,36.93c2.19.29,4.39.53,6.57.88,23.31,3.79,42.73,22.61,47.36,45.78a64.49,64.49,0,0,1,1,17.16c-.32,4.68-.72,9.36-1,14.05a14,14,0,0,0,.57,4.08A3.67,3.67,0,0,0,768,121.3a5.3,5.3,0,0,1-3.7,9.89,12.5,12.5,0,0,1-6.85-5.4c-2.56-3.79-3.12-8-2.81-12.49.44-6.48,1.11-13,1-19.46-.34-21.55-16.5-40.77-37.61-45.14A47.89,47.89,0,0,0,663.8,77c-1.47,3.5-2.21,7.32-3.3,11a21,21,0,0,1-1,2.88,5.26,5.26,0,0,1-6.35,2.74c-2.5-.79-4.3-3.41-3.62-5.87,1.51-5.45,2.49-11.08,5-16.23q13.82-28.6,45.14-34c1.66-.28,3.34-.43,5-.64Z"/><path d="M730.9,96.59a83.25,83.25,0,0,1-4,23.45c-5.28,15.77-15.75,26.85-30.66,33.95-8.25,3.93-17,6.34-25.81,8.55-4.62,1.16-9.22,2.41-13.81,3.68a5.36,5.36,0,0,1-6.7-3.39,5.16,5.16,0,0,1,3.37-6.68c5.47-1.59,11-3,16.52-4.43,7.42-1.9,14.78-4,21.74-7.27,15.31-7.24,24.24-19.36,27.3-35.87a111.18,111.18,0,0,0,1.46-13.19,12.14,12.14,0,0,0-13-12.57c-5.81.44-9.55,3.45-11.05,9.06-.93,3.48-1.48,7.07-2.56,10.49-4.69,14.86-14.87,23.85-29.92,27.46A58.43,58.43,0,0,1,650,131.38a5.3,5.3,0,0,1-.11-10.6c1.39-.06,2.78-.1,4.16-.2a40.07,40.07,0,0,0,15.19-3.82c7.85-3.92,12.39-10.46,14.64-18.74.92-3.4,1.51-6.9,2.47-10.28,3.2-11.23,14.4-16.28,23.3-15.52,11.47,1,20.38,9.91,21.19,20.55C731,94,730.9,95.31,730.9,96.59Z"/><path d="M759.88,136.77a23.66,23.66,0,0,0-12.58,4.79,25.57,25.57,0,0,1-6.08-7c-3.56-6-4.48-12.68-4.18-19.54.26-6.11.76-12.22.88-18.34a30.26,30.26,0,0,0-9.61-23.24C714.35,60,689.08,62.48,680.37,84a92.08,92.08,0,0,0-3,10.25c-1.35,4.93-3.41,9.48-7.2,13-5,4.66-11.06,5.91-17.63,5.51a11.62,11.62,0,0,1-2-.24A5.31,5.31,0,0,1,652,102.1c1.72,0,3.46.17,5.17,0A9.62,9.62,0,0,0,665,96.94a26.77,26.77,0,0,0,2.71-8c2.38-10.94,7.48-20.26,16.65-27,17-12.48,41.25-9.12,54.85,7.57a40.16,40.16,0,0,1,9.34,25.75c0,5.4-.52,10.8-.65,16.2a74,74,0,0,0,.23,11.12c.81,6.38,4.54,10.8,10.35,13.49Z"/><path d="M769,214.9H749c-4.27,0-6.64-2.37-6.64-6.61q0-12.12,0-24.23c0-4,2.42-6.47,6.43-6.48l40.8,0a5.9,5.9,0,0,1,5.94,5.82q0,12.85,0,25.7a5.87,5.87,0,0,1-6.07,5.8C782.64,214.91,775.8,214.9,769,214.9Z"/><path d="M713.19,95.53a56.93,56.93,0,0,1-5.06,22c-4.65,9.8-12.18,16.7-21.72,21.57-7.45,3.8-15.4,6.06-23.52,7.84-3.19.7-6.39,1.35-9.59,2a5.33,5.33,0,1,1-2.23-10.41c6.1-1.4,12.25-2.65,18.31-4.22a55,55,0,0,0,16-6.87c9.25-5.91,14.57-14.4,16.41-25.13.42-2.47.57-5,.82-7.49a5.32,5.32,0,1,1,10.62.71Z"/><path d="M733.31,175.72c-2.5-1.31-5.18-2.57-7.73-4.07a18.35,18.35,0,0,0-15.88-1.59c-8.55,2.8-17.16,5.47-25.83,7.86-7.4,2-14.93,3.68-22.41,5.42A5.3,5.3,0,1,1,659.22,173c15.6-3.08,30.73-7.84,45.87-12.59a62.16,62.16,0,0,1,9.31-2.09c4.73-.71,9.17.58,13.39,2.63,3.54,1.72,7,3.56,10.51,5.39a1.79,1.79,0,0,1,.6.92c.09.23,0,.52,0,.78a3,3,0,0,1-1.25,2.86A63.49,63.49,0,0,0,733.31,175.72Z"/><path d="M731.61,193.38c-2-.91-3.91-1.88-5.91-2.7-2.67-1.1-5.36-2.15-8.08-3.08-2.15-.74-4.33-.26-6.44.32-8.39,2.29-16.75,4.71-25.16,7-4.74,1.27-9.54,2.36-14.34,3.41a5.31,5.31,0,1,1-2.13-10.41c8.76-1.64,17.23-4.34,25.8-6.7q8.18-2.25,16.45-4.2c4.3-1,8.43,0,12.44,1.56,2.31.89,4.57,1.9,6.83,2.9a1.22,1.22,0,0,1,.66.84c0,3.61,0,7.21,0,10.82C731.73,193.16,731.68,193.22,731.61,193.38Z"/><path d="M731.74,211.31a20.9,20.9,0,0,1-2.88-.68c-3.17-1.25-6.3-2.62-9.47-3.87-4.21-1.65-8.43-1.19-12.72-.16-6.05,1.46-12.14,2.77-18.23,4a15.39,15.39,0,0,1-4.78.33,5.06,5.06,0,0,1-4.21-5.11,5.33,5.33,0,0,1,4.15-5.22c7.48-1.59,15-3,22.44-4.81,7.13-1.7,13.84-.64,20.42,2.23,1.51.66,3,1.27,4.53,2a1.45,1.45,0,0,1,.74,1C731.76,204.37,731.74,207.67,731.74,211.31Z"/><path d="M749.54,172.92c0-4.09,0-8.11,0-12.12a24,24,0,0,1,.22-4.15,11,11,0,0,1,10.72-9q8.45-.09,16.91,0a11.06,11.06,0,0,1,11,11c.06,4.51,0,9,0,13.53,0,.26,0,.51-.07.81h-7.39c0-2.25,0-4.43,0-6.6,0-2.55,0-5.11,0-7.66a3.5,3.5,0,0,0-3.36-3.57q-8.56-.09-17.13,0a3.54,3.54,0,0,0-3.41,3.76c0,4.21,0,8.42,0,12.62,0,.45,0,.89,0,1.44Z"/><path d="M741.52,148.38a21.64,21.64,0,0,0-2.63,10.29c-.35-.16-.58-.25-.79-.37a48.58,48.58,0,0,1-12.23-10,5.16,5.16,0,0,1-1.06-5.46,5.05,5.05,0,0,1,4.25-3.42,5.21,5.21,0,0,1,4.52,1.54C736.16,143.38,738.76,145.8,741.52,148.38Z"/><path d="M693.45,406.31l8.15-8.17c16.44,16.35,41.79,14.83,56.77,1.23a41.29,41.29,0,0,0-40.86-69.74c-19.31,6.58-28.5,24.74-28,39.08H706.6l.43.53-23.72,22.71L660,368.78h17.54c.52-17.65,7.49-32,21.58-42.64,9.94-7.5,21.31-10.78,33.74-10.37,23.86.78,44.63,18.34,49.62,42a53,53,0,0,1-28.91,58.81C732,426.89,707.55,421,693.45,406.31Z"/><path d="M754.18,382.48,750,389.54l-1.06-.6q-11.57-6.86-23.14-13.72a1.63,1.63,0,0,1-1-1.57c0-9.16,0-18.32,0-27.48,0-.27,0-.53,0-.88h8.76v1.49c0,7.41,0,14.82,0,22.23a1.84,1.84,0,0,0,1,1.85c6.07,3.55,12.12,7.16,18.17,10.75C753.22,381.86,753.64,382.14,754.18,382.48Z"/><path d="M415.28,163.13c-4.79,0-9.33,0-13.87,0a16.52,16.52,0,0,1-8.94-2.49,9.5,9.5,0,0,1-4.8-8.61c.06-14,0-27.9,0-41.85a14.61,14.61,0,0,1,14.16-14.22c3.89,0,7.79,0,11.68,0h1.74c0-4.42,0-8.68,0-12.94a14.71,14.71,0,0,1,11.1-14.36,14.55,14.55,0,0,1,3.53-.36c23.09,0,46.18,0,69.27,0,4.4,0,7.46,1.93,9,5.85a26.34,26.34,0,0,1,1.58,7.85c.26,4.09.07,8.22.07,12.33,0,.48,0,1,.07,1.6.63,0,1.2.07,1.77.08,5.14,0,10.28.06,15.41,0a9,9,0,0,1,8.36,4.86,15.72,15.72,0,0,1,2.15,8.05q0,22.14,0,44.29c0,6.46-3.66,10-10.15,10-5.68,0-11.36,0-17,0a3.94,3.94,0,0,0-.58.14v1.8q0,20.68,0,41.37a21.8,21.8,0,0,1-.43,4.66,8.05,8.05,0,0,1-7.5,6.53c-.91.09-1.84.11-2.75.11q-34.64,0-69.27,0a17.9,17.9,0,0,1-9.77-2.43,9.43,9.43,0,0,1-4.83-8.59c.07-13.9,0-27.79,0-41.69C415.28,164.47,415.28,163.89,415.28,163.13Zm0-8.12c0-1.63.12-3.26,0-4.86-.69-7.64,7.57-15,14.73-14.74,8.48.32,17,.08,25.46.08,14.65,0,29.31,0,44,0a8.78,8.78,0,0,1,8.38,5,12.57,12.57,0,0,1,1.53,4.23,85.26,85.26,0,0,1,.46,8.88c0,1.24.31,1.68,1.63,1.66,5.24-.07,10.49,0,15.73,0,2.34,0,2.38-.06,2.38-2.32q0-22.22,0-44.44c0-.7,0-1.41,0-2.11-.18-2-.81-2.55-2.77-2.55H402.3a6.75,6.75,0,0,0-6.75,6.79q0,20.44,0,40.88c0,2.44.62,3.42,3,3.49C404,155.12,409.55,155,415.28,155Zm47.21-11.66H427.94c-3.3,0-4.81,1.46-4.81,4.7q0,28.63,0,57.25c0,3.22,1.55,4.75,4.8,4.75h69.25c3.3,0,4.75-1.46,4.76-4.74q0-28.63,0-57.25c0-3.31-1.42-4.71-4.75-4.71ZM423.13,95.82h78.81c0-2.76,0-5.4,0-8,0-3,0-5.95,0-8.92-.06-2.19-.74-2.89-2.62-2.89q-34.79,0-69.57,0a6.27,6.27,0,0,0-3.16,1,6.68,6.68,0,0,0-3.46,6.31C423.27,87.45,423.13,91.6,423.13,95.82Z"/><path d="M515.27,196.64h4.62c.32,5.58,2.6,10.09,7.52,13a13.67,13.67,0,0,0,10.17,1.56,14.93,14.93,0,0,0,11.33-16.45c-1-7.52-7.38-13.35-14.36-13V191l-6.14-5.64L522,179.5c2.3-2.38,4.2-4.42,6.19-6.38s4.08-3.84,6.13-5.76v9.2c7.51.38,13.18,3.65,16.84,10a19.93,19.93,0,0,1-19.68,29.69C522.23,214.93,514.59,205.76,515.27,196.64Z"/><path d="M514.46,107.85a5.79,5.79,0,1,1,.06,11.59,5.79,5.79,0,0,1-.06-11.59Z"/><path d="M458.14,152.78h8.53v26.64h11.05l-15.27,20.34-15.2-20.24h10.89Z"/><path d="M137.24,389.51v-9.7H239.49c11.92,0,19.93,8,19.95,19.91q0,43.09,0,86.19c0,12.16-7.86,20.1-20,20.11q-77.73.05-155.45,0c-11.61,0-19.6-8.08-19.67-19.7-.06-9.63,0-19.27,0-28.9,0-.76.09-1.51.14-2.43h9.44c0,.92.11,1.83.11,2.74q0,14.06,0,28.12c0,6.83,3.56,10.49,10.4,10.49q77.73,0,155.45,0c6.25,0,9.87-3.74,9.87-10.18q0-43.22,0-86.45c0-6.65-3.6-10.18-10.39-10.18q-49.34,0-98.69,0Z"/><path d="M180.77,514.29l.36-2.66h90.49c1.08,5.84-4.87,12.9-11.67,13.3-6.23.36-12.49.22-18.74.23q-87,0-173.93,0c-6.42,0-11.33-2.25-14.21-8.11a34.7,34.7,0,0,1-1.62-5.44H142.6l.39,2.66Z"/><path d="M113.91,409.09c-3.7,1.35-6.51,3.27-6.43,7.44s2.89,6,6.63,7.17l-4.38,10.78c-3.66-1.58-7.12-2.41-10.14.93-2.59,2.87-1.95,5.87-.22,9.43-3.34,1.36-6.56,2.74-9.85,3.94-.35.13-1.32-.66-1.59-1.22-1.3-2.75-3.26-4.47-6.4-4.52s-5.29,1.66-6.71,4.47c-.31.61-1.56,1.34-2.08,1.16-3.15-1.1-6.21-2.46-9.5-3.81,1.72-3.79,2.43-7.08-.72-10-2.82-2.59-5.87-1.94-9.43-.45-1.33-3.18-2.7-6.23-3.83-9.37-.15-.42.81-1.51,1.49-1.9,2.32-1.34,3.93-3.06,4.15-5.87A6.41,6.41,0,0,0,51.66,411c-.8-.5-1.66-.89-2.83-1.5L53,399.22c3.86,1.93,7.28,2.19,10.15-1.14,2.61-3,1.65-6.11,0-9.37L74,384.11c1.59,3.06,3.05,6.18,7.19,6.19s6.05-2.46,7.45-6.17l11.1,4.57c-1.83,3.36-2.42,6.58.42,9.61s6,2.34,9.58.83ZM92.5,416.67a11.22,11.22,0,0,0-10.67-11.49c-5.7-.18-11,4.86-11.28,10.71A11.16,11.16,0,0,0,81,427.26,11,11,0,0,0,92.5,416.67Z"/><path d="M151.5,460.58c-.77.8-1.6,2.18-2.8,2.77a2.86,2.86,0,0,1-4-1.4,65.74,65.74,0,0,1-2.76-6.43,2.35,2.35,0,0,0-2.61-1.89c-4,.09-8,.1-12,0a2.51,2.51,0,0,0-2.82,2c-.62,1.89-1.42,3.71-2.16,5.56-.86,2.16-2.51,2.93-4.59,2.12a3.39,3.39,0,0,1-2.05-4.68c1.09-3.1,2.31-6.15,3.51-9.21,2.78-7.09,5.61-14.16,8.37-21.25,1-2.63,2.6-4.53,5.66-4.54s4.54,1.87,5.54,4.35q6,14.8,11.88,29.63A29.81,29.81,0,0,1,151.5,460.58Zm-18.3-28.91-5.8,16.13h11.68Z"/><path d="M103,392c2.18-4.17,1.85-4.9-2.13-6.89-.71-.35-1.19-1.79-1.19-2.73a3.44,3.44,0,0,1,1.2-2.66c3.65-2,4-3.58,1.16-7,1-1.12,1.92-2.31,3-3.41a1.65,1.65,0,0,1,1.32-.36c4.83,1.09,4.9,1.06,6.66-3.55a36.85,36.85,0,0,1,3.75,0,2.46,2.46,0,0,1,1.64.86c2.59,3.86,2.56,3.88,7.07,1.66l3.12,2.82c-.39,1.64-1,3-.89,4.24.09.91,1.16,2.4,1.87,2.44,3.32.19,3,2.38,2.92,4.57,0,.43-.08.85-.11,1.24-4.78,1.7-5.34,3.3-2.5,7.51l-3.36,3.77a13.51,13.51,0,0,0-3.14-1.3c-2.06-.28-3.12.88-3.66,2.85-.19.71-1.11,1.69-1.74,1.73-1.35.08-3.4.11-4-.7-3.1-4.24-3-4.34-7.23-1.9-.37-.3-.77-.61-1.15-.95C104.76,393.57,103.94,392.81,103,392Zm13-16.11a5.48,5.48,0,1,0,.14,11,5.56,5.56,0,0,0,5.35-5.57A5.49,5.49,0,0,0,116,375.88Z"/><path d="M165.06,447.85c0,3.82.17,7.28-.08,10.71a7.43,7.43,0,0,1-1.8,4.3,3.62,3.62,0,0,1-3.53.31,5.54,5.54,0,0,1-2.15-3.72c-.24-5.62-.13-11.26-.14-16.89,0-4.42,0-8.84,0-13.25,0-3.7,1.12-4.88,4.77-4.93,4.68-.06,9.36-.07,14,.13,6.13.26,10.08,4.16,10.52,10.07.51,6.84-2.59,11.49-8.83,12.64a72.91,72.91,0,0,1-9.3.62C167.53,447.9,166.5,447.85,165.06,447.85Zm.14-5.52c3.36-.25,6.39-.29,9.35-.75s4.3-2.43,4.36-5.3c.07-3.19-1.15-5.19-4.15-5.68s-6.3-.45-9.56-.65Z"/><path d="M193.89,443.68c0-5.28-.05-10.57,0-15.85,0-2.6,1.5-4.15,3.67-4.2s3.66,1.43,4,4a18,18,0,0,1,.06,2.08q0,10,0,20c0,3,0,6.06,0,9.1-.06,3.18-1.41,4.81-3.88,4.8s-3.79-1.61-3.81-4.83c0-5,0-10,0-15.07Z"/></svg>