<svg id="Layer_1" data-name="Layer 1" xmlns="http://www.w3.org/2000/svg" viewBox="0 0 841.89 595.28"><title>naira</title><path d="M193,108h81c.92,1.36,1.75,2.8,2.78,4.07q38.5,47.3,77,94.63a9.13,9.13,0,0,0,8,3.7q69.49-.15,139-.07h6c0-2.52,0-4.48,0-6.44q-.85-47.95-1.72-95.9h32l-2.64,102H597v27H535.48v79.56c7.38,0,14.5,0,21.62,0,13.3.11,26.6.28,39.9.43v26H535.17V468c-14.67,0-28.79-.1-42.91.07a8.11,8.11,0,0,1-7.14-3.4q-48-58.9-96.1-117.7a9.13,9.13,0,0,0-7.92-3.87q-71.48.18-143,.08h-5.65c0,21.09-.06,41.69,0,62.3.08,20.76-.89,41.59,3.45,62.14h-35.1c5.83-41.43,1.73-82.71,3.32-124.42H141.72V316.5h61.9V237H141.33c0-7.73.22-14.71-.08-21.67-.17-4,1.12-5.11,5.07-5.07,17.33.2,34.66.09,52,.07,1.75,0,3.51-.19,5.63-.32v-5.95c0-22.33-.58-44.68.24-67,.41-11.23-1.46-20.59-10.48-27.8C193.35,109,193.23,108.43,193,108ZM363.27,316.15c-.77-1.21-1.14-1.95-1.65-2.57-20.15-24.6-40.27-49.23-60.59-73.7a9.24,9.24,0,0,0-6.34-2.66c-19-.2-38-.13-56.95-.1-1.59,0-3.18.21-4.88.33v78.69Zm143.2.12c.1-1.88.24-3.35.24-4.81,0-23-.11-45.95.12-68.92,0-4.49-1.29-5.54-5.62-5.52-38.79.16-77.58.09-116.37.11-1.56,0-3.13.18-5.3.31,1,1.6,1.53,2.61,2.23,3.47,19.77,24.26,39.5,48.55,59.46,72.66a9.85,9.85,0,0,0,6.74,2.87c17.81.23,35.63.14,53.44.12C503,316.55,504.64,316.37,506.48,316.27ZM232.85,156.45v53.42h43.82ZM506.48,343.67H465.64l40.84,50.12Z"/></svg>