<svg id="Layer_1" data-name="Layer 1" xmlns="http://www.w3.org/2000/svg" viewBox="0 0 841.89 595.28"><defs><style>.cls-1{fill:#fff;}</style></defs><title>funds</title><path d="M410.81,436.87h52.55c5,0,10,.15,15,0a9.51,9.51,0,0,1,9.83,9.82c-.14,28.07-.06,56.15-.06,84.22,0,4.86-2.83,8.41-7.44,9.36a9.52,9.52,0,0,1-1.91.14H401.39l-58.43,0c-4.71,0-8.3-2.71-9.3-7.08a14.13,14.13,0,0,1-.23-3.1q0-16.68,0-33.35,0-25.19,0-50.38c0-5.89,3.79-9.6,9.71-9.6h67.66Zm59,85.25v-67H351.7v67Z"/><path d="M414.55,429.47l43.08-43-29.74-29.72L372.64,412l17.56,17.48h-2c-7.6,0-15.2,0-22.79,0a2.76,2.76,0,0,1-1.74-.73c-3.46-3.38-6.87-6.81-10.29-10.24-3.93-3.94-3.88-9.47.1-13.44l16.29-16.27L392.58,366l10.73-10.74c6-6,12-12,18-18a9,9,0,0,1,11.5-1.35,12.32,12.32,0,0,1,1.91,1.62q12.95,12.92,25.87,25.87l16,16c4,4.05,4.11,9.48.08,13.52-11.49,11.52-23,23-34.48,34.55a6.08,6.08,0,0,1-4.88,2c-7.2-.13-14.4,0-21.59,0Z"/><path d="M428.41,399.06a13.37,13.37,0,1,1-13.26-13.43A13.37,13.37,0,0,1,428.41,399.06Z"/><path d="M401.67,497.71h-17V479.56h16.95V462.49h18.21v17h17v18.14H419.95v17.06H401.67Z"/><path class="cls-1" d="M531.2,366.22V134.62h231.7v231.6Zm226.28-115.5A110.94,110.94,0,0,0,646.68,140c-61.33,0-111.08,49.75-111,111a110.89,110.89,0,1,0,221.78-.27Z"/><path d="M757.47,250.71A110.89,110.89,0,1,1,535.7,251c-.1-61.21,49.65-111,111-111A110.94,110.94,0,0,1,757.47,250.71Zm-117.26-47.5-.09-.83c4.54-1.89,9.13-3.69,13.62-5.7a138.69,138.69,0,0,1,37.77-10.87c6.63-.92,12.49-.22,17.58,4.57a52.78,52.78,0,0,0,7.27,5.33c5.83,3.84,12.35,5.67,19.34,6.39-19.17-37.35-67.85-64.56-119.86-48.31-52.95,16.54-82.59,72.59-67,126,15.47,53,70.73,83.9,124.58,69.3,50.46-13.68,75.86-60.59,74.62-96.76a78.34,78.34,0,0,0-8.51,2.26c-7.77,3-15.47,6.2-23.17,9.37-3.38,1.39-6.8,2.45-10.51,1.93-7.67-1.08-15.32-2.3-23-3.27-8.8-1.1-17.61-2.16-26.44-2.9-4.64-.39-6.45-1.88-6.44-6.61,0-5.9,4.47-10.89,11.16-12.4,6.47-1.46,12.86-.11,19.29.61a127.59,127.59,0,0,0,13.22.77c2.39,0,4-1.57,4.63-3.95a46.91,46.91,0,0,0-.35-26.25c-1.31-4.16-4-6.59-8.48-6.9-8.85-.61-17.7-1.41-26.56-1.76C655.35,203,647.78,203.21,640.22,203.21Z"/><path d="M567.31,244.45h80.58a54,54,0,0,0-2.18,6.37,12.24,12.24,0,0,0,1.87,9.7,8.26,8.26,0,0,0,6.38,3.73c9.49.91,19,1.76,28.47,2.91,8.72,1.06,17.4,2.49,26.5,3.82,0,.57,0,1.43,0,2.3q0,8.47,0,16.93c0,5.53-2.84,8.37-8.31,8.37H575.78c-5.66,0-8.45-2.75-8.46-8.43q0-21.9,0-43.79C567.31,245.77,567.31,245.18,567.31,244.45Z"/><path d="M695.44,230.71h-128c0-5.71-.23-11.34.08-16.94.2-3.65,3.5-6,7.52-6,15.51,0,31-.08,46.52,0,17.24.09,34.47.24,51.71.55,5.33.09,10.64.83,16,1.17,2.32.15,3.44,1.43,4.16,3.46A38.05,38.05,0,0,1,695.44,230.71Z"/><path d="M257.6,300.84c-4.72-1.82-6-5.39-6-10.23.14-27.52.07-55,.07-82.55,0-6.17,2.71-8.87,8.88-8.87h146c-.46.66-.74,1.14-1.1,1.56-3.25,3.82-6.56,7.58-9.73,11.45a4.07,4.07,0,0,1-3.55,1.57q-50.18-.05-100.35-.07c-2.08,0-3,.47-3.63,2.63-3.09,10.09-9.81,16.7-20,19.63-1.38.39-2,.85-2,2.44.09,7.55.08,15.11,0,22.66,0,1.48.45,2.07,1.94,2.5,10.44,3,17.23,9.82,20.24,20.24.57,2,1.42,2.41,3.31,2.41q39.89-.09,79.77,0h4.06v14.68Z"/><path d="M488.44,159.28c-1.51,5-5.07,6.43-10.07,6.41q-71.34-.16-142.69-.06h-2.52c4.19-4.89,8-9.47,12-13.91.52-.58,1.82-.62,2.75-.62q50,0,99.9,0c2.44,0,3.34-.71,4.07-3,3.12-9.91,9.82-16.34,19.81-19.24,1.47-.43,2.12-1,2.09-2.63-.1-7.48-.05-15,0-22.43,0-1.13,0-2-1.44-2.43-11.16-3-18.09-10.31-21.09-21.42-.1-.37-.24-.72-.43-1.28H364.74V64.11h2.86c36.92,0,73.85.05,110.77-.06,5,0,8.57,1.36,10.07,6.41Z"/><path d="M390.37,300.84V286.51c2.86-.45,5.53-.71,8.12-1.31A35.06,35.06,0,0,0,425.64,251c0-7.86,0-15.73,0-23.59,0-.76,0-1.51,0-2.51H399.88L444,173.42l44,51.37H462.41c0,1.07,0,1.88,0,2.7,0,7.71,0,15.42,0,23.13a50,50,0,0,1-42.78,49.57c-1.28.19-2.54.43-3.82.64Z"/><path d="M349.42,64.11V78.23c-3.33.62-6.62,1-9.76,1.87a35,35,0,0,0-25.27,33.29c-.06,8.09,0,16.19,0,24.28,0,.67.08,1.35.14,2.27H340.1L296,191.38,252,140.11h25.43c.06-1.07.13-1.88.14-2.69q0-11.45,0-22.9a49.83,49.83,0,0,1,42.66-49.85,61.56,61.56,0,0,1,8.75-.54C335.73,64.05,342.44,64.11,349.42,64.11Z"/><path d="M426.37,113.57c-.32,9.15-2.82,16-8.42,21.54a24.42,24.42,0,0,1-35.79-1c-9.45-10.36-9.93-26.78-.91-37.49,6.29-7.47,14.39-10.85,24.07-8.84,10,2.07,16.31,8.57,19.49,18.09A52.22,52.22,0,0,1,426.37,113.57Z"/><path d="M365.31,248.66c-.3,9.09-2.79,15.95-8.37,21.5a24.43,24.43,0,0,1-35.79-.87c-9.41-10.29-10-26.55-1.14-37.31,6.27-7.62,14.41-11.08,24.19-9.09,10.08,2.05,16.44,8.63,19.61,18.25A52.27,52.27,0,0,1,365.31,248.66Z"/><path d="M456.5,115.17a8.7,8.7,0,0,1-8.88,8.88,9,9,0,1,1,.23-18A8.69,8.69,0,0,1,456.5,115.17Z"/><path d="M283.52,249.82a8.71,8.71,0,0,1,8.71-9.06,9,9,0,1,1,.13,18A8.66,8.66,0,0,1,283.52,249.82Z"/><path d="M112.3,295.57l-2.93-.67c.4-3.81.79-7.66,1.22-11.51q1.57-14.08,3.18-28.15c1-9,2.14-18,3.18-26.93.85-7.33,1.86-14.65,2.35-22a13,13,0,0,0-2-6.74c-2.38-4.17-1.4-7,2.07-10.12,5.06-4.59,4.54-4.61,9.24.16,3,3.07,3.91,5.88,1.68,9.49-3.43,5.55-1.66,11.4-1.08,17.15.92,9.16,2.05,18.29,3.1,27.44q1.81,15.72,3.62,31.43c.75,6.6,1.46,13.21,2.18,19.83l-2.92.62Z"/><path d="M124.07,132.85c-18.61-.57-37-2.1-54.95-7.18a58.3,58.3,0,0,1-17.17-7.46c-.33-.22-.67-.43-1-.66-7.2-5.38-7.35-11.33-.32-16.94,5-4,10.89-6.17,16.93-7.92,4.57-1.32,9.22-2.38,13.87-3.34,1.81-.37,1.92-1.52,2.16-2.88,1.28-7.25,2.43-14.54,4-21.73a49.84,49.84,0,0,1,3.58-10.06c1.53-3.33,2.39-3.57,6-3.09,11.56,1.57,23.17,1.06,34.76.7,5.23-.16,10.45-.86,15.68-1a4.87,4.87,0,0,1,3.61,1.82c2.13,3.21,4.38,6.51,5.67,10.1C159.7,71,162,79,164.39,87A2.94,2.94,0,0,0,167,89.43c9.57,2,19.08,4.26,27.5,9.53a24.22,24.22,0,0,1,5.39,4.62c3,3.47,2.92,7.3,0,10.8-3.71,4.4-8.75,6.79-14,8.78a122.59,122.59,0,0,1-31.44,7.2C144.34,131.38,134.2,132,124.07,132.85Z"/><path d="M138.16,215.46c3.87-2.29,7.46-4.5,11.15-6.53,1.58-.88,2-1.75,1.46-3.56-1.82-6.39-3.42-12.84-5.24-19.79,4.12.6,7.95,1,11.72,1.74a121.73,121.73,0,0,1,37.29,13.27,99.59,99.59,0,0,1,22,16.61,2.69,2.69,0,0,1,.77,1.62c.39,12.49.15,24.95-3.13,37.12-3,11-10.13,18.94-19.32,25.14-9.88,6.66-21.18,9.65-32.75,11.6-6.25,1.05-12.6,1.57-18.91,2.31a15.28,15.28,0,0,1-1.7,0c.32-4.27.73-8.43.91-12.6.53-12.63,1-25.27,1.47-37.9.18-4.36.53-8.71.73-13.06a4.44,4.44,0,0,0-.5-1.78C142.17,225,140.2,220.29,138.16,215.46Z"/><path d="M109.35,215.52c-1.93,4.55-3.9,9-5.7,13.56a11.28,11.28,0,0,0-.84,4.34c.43,15.65.89,31.3,1.48,46.95.18,4.81.81,9.61,1.26,14.68-3.83-.33-7.61-.51-11.36-1-10.71-1.4-21.25-3.47-31.33-7.55a54.35,54.35,0,0,1-24.78-19.76c-3.82-5.51-5.31-11.85-6.4-18.27A127,127,0,0,1,30.23,220a6,6,0,0,1,1.64-3.63c15.31-14.85,33.77-23.68,54.44-28.18,4.33-.94,8.73-1.57,13.11-2.3a16.73,16.73,0,0,1,2.51,0c-1.78,6.69-3.48,13.19-5.26,19.67-.43,1.56-.29,2.49,1.37,3.36C101.83,210.9,105.45,213.21,109.35,215.52Z"/><path d="M154.6,136.13l19.88-3.51a8.31,8.31,0,0,1-6,6.65,2.54,2.54,0,0,0-2.25,2.21c-3,10.24-7.84,19.43-15.46,27-7,6.94-15.32,11.39-25.32,11.87-9.63.46-18.1-2.82-25.5-8.92-9.47-7.81-15.07-18.09-18.63-29.62-.42-1.35-.78-2.18-2.42-2.61-3.21-.84-5.06-3.33-6.23-6.61l20.82,3.62c-2.67,6.89,2.64,11.32,8.25,10.8,2-.18,4-.06,6-.07,5.62,0,8.66-3.39,8.06-9.14h16.27a20.58,20.58,0,0,0,.68,4.6,7,7,0,0,0,6.47,4.52,64.35,64.35,0,0,0,9.06-.05c5.35-.44,8-4.54,6.58-9.79C154.76,136.78,154.69,136.49,154.6,136.13Z"/></svg>