<svg id="Layer_1" data-name="Layer 1" xmlns="http://www.w3.org/2000/svg" viewBox="0 0 750.02 820.06"><defs><style>.cls-1{fill:#fff;}</style></defs><title>security</title><path d="M640.43,243.23c-3.05,69.6-8.08,138.63-31.82,205-39,109-108.95,192-208.45,250.69-15.72,9.27-28.93,9-44.68-.51C212.93,612.11,136.57,485.15,122.27,320.13c-3.3-38.15-3.71-76.54-6.12-114.78-.83-13.2,3.81-19.11,17.12-20.57,83-9.07,162-32.18,236.56-70.08,4.92-2.5,13.38-2.2,18.42.33,73.71,37,151.4,60.42,233.37,69.23,15.81,1.7,20.76,8.86,19.06,24C639.39,219.81,640.43,231.58,640.43,243.23ZM169.49,301.57h2c.41,6.65.76,13.31,1.23,20,.51,7.2,1,14.41,1.72,21.6,12.68,128.46,72.78,227.36,183.17,295.42,14.71,9.07,26.79,9,41.29.16,78.36-47.77,133.41-114.1,164-200.93,22.05-62.55,21.67-127.69,24.68-192.53.57-12.34-7.67-14.37-17.19-15.47a548.31,548.31,0,0,1-181.17-53.57c-5.21-2.57-13.65-3.55-18.52-1.12a553.1,553.1,0,0,1-187.56,55.22c-10,1.11-14.4,5.56-13.92,16.31C170.07,264.9,169.49,283.25,169.49,301.57Z"/><path d="M379.51,350c21.12,0,42.24.2,63.36-.07,14-.18,20.4,6.29,20.36,20.17-.13,41.14-.22,82.27.08,123.41.08,11.57-4.71,18.35-15.36,22.82-45.9,19.25-91.58,20-137.67.56-11.07-4.68-16.64-11.07-16.49-23.68.51-40.57.45-81.16.06-121.73-.15-15.77,6.87-22,22.29-21.6C337.26,350.42,358.39,350,379.51,350Zm15.66,126.9c-.56-5.12-1-8.38-1.26-11.64-1.63-17.75-13.45-35.35.85-53.57,2.06-2.63-2.83-15-7.36-17.38-5.34-2.76-15.69-1.82-20.34,1.91-4,3.21-6.43,15.66-3.67,18.7,9.82,10.83,5.31,21.47,3.33,32.54-1.7,9.51-3.37,19-5.21,29.45Z"/><path d="M426.64,341.34c-7.28-57.81-19.15-74.82-48.48-74.8-29,0-40.47,16.47-47.52,68.4-17.89,5-17.73,4.33-19-13.75-4.2-58.94,53.54-91.1,98.31-67.45,26.33,13.91,42,46.78,34.64,76.23C443.47,334.31,434.38,336.65,426.64,341.34Z"/><path class="cls-1" d="M395.17,476.9H361.52c1.84-10.43,3.52-19.94,5.21-29.45,2-11.07,6.49-21.7-3.33-32.54-2.75-3-.33-15.49,3.67-18.7,4.65-3.73,15-4.67,20.34-1.91,4.53,2.34,9.42,14.76,7.36,17.38-14.3,18.21-2.48,35.82-.85,53.57C394.21,468.53,394.61,471.79,395.17,476.9Z"/></svg>