<svg xmlns="http://www.w3.org/2000/svg" viewBox="0 0 35.67 167.46"><title>social media icons</title><g id="Layer_4" data-name="Layer 4"><path d="M22.92,12.58v3c-1.28.32-3.61-.36-2.63,2.5l2.74.17-.34,3.68-2.78.18v9.16H16.18v-9l-1.91-.37V18.27l1.63-.21C16.82,12.59,17.29,12.22,22.92,12.58Z"/><path d="M27.18,106.17H23.86c0-1.73,0-3.37,0-5a3.82,3.82,0,0,0-.25-1.89c-.42-.64-1.18-1.47-1.79-1.46A2.38,2.38,0,0,0,20,99.25a28.27,28.27,0,0,0-.29,4.73c0,.69,0,1.38,0,2.18H16.55V94.91c1.18.15,2.58-.85,3.26.8a15.24,15.24,0,0,1,3-.84c2.78-.23,4.24,1,4.39,3.81C27.28,101.13,27.18,103.59,27.18,106.17Z"/><path d="M10.18,106.14V95H14v11.16Z"/><path d="M14.11,91.08c-.1,1.34-.79,2.25-2,2a3,3,0,0,1-1.89-1.81c-.25-1.15.61-2,1.87-2A1.87,1.87,0,0,1,14.11,91.08Z"/><path d="M11.66,64.41l.69-.14L9.83,61l.35-.42,1.29.09c-1.2-1.48-1.86-2.94-.8-4.83a11.76,11.76,0,0,0,7.76,3.84c.52-3.47,1.93-4.88,4.56-4.57a8.49,8.49,0,0,1,.86.16l3.52.8-.82,1.15.91-.09c-.44,1.44-1,2.94-1.36,4.5-1.54,7.14-10.21,11-15.93,7.13l4.57-1.44-3.31-2.46Z"/><path d="M28.25,138.9c0,1.35,0,2.71,0,4.06a5.39,5.39,0,0,1-5.29,5.3c-2.65.06-5.3,0-7.94,0a5.51,5.51,0,0,1-5.81-5.56c-.11-2.64-.11-5.3,0-7.94a5.56,5.56,0,0,1,5.53-5.53c2.7-.12,5.42-.13,8.12,0a5.49,5.49,0,0,1,5.4,5.78c0,1.29,0,2.59,0,3.88Zm-9.56,7.93c1.3,0,2.6,0,3.89,0a4,4,0,0,0,4.22-4.21q.05-3.8,0-7.61a4,4,0,0,0-4-4.27c-2.71-.12-5.43-.12-8.13,0a3.83,3.83,0,0,0-3.94,3.77,83.47,83.47,0,0,0,0,8.66,3.87,3.87,0,0,0,4,3.65C16.09,146.85,17.39,146.82,18.69,146.82Z"/><path d="M23.65,138.8a4.83,4.83,0,0,1-5,4.86,4.91,4.91,0,0,1-4.87-4.82,5.05,5.05,0,0,1,4.92-5A4.94,4.94,0,0,1,23.65,138.8Zm-4.92,3.41a3.43,3.43,0,1,0-3.42-3.51A3.44,3.44,0,0,0,18.73,142.21Z"/><path d="M25.58,133.33c-1,.6-1.52,1.19-2,1.17a1.62,1.62,0,0,1-1.11-1.19,1.66,1.66,0,0,1,1.13-1.21C24.08,132.09,24.61,132.7,25.58,133.33Z"/></g></svg>