<svg xmlns="http://www.w3.org/2000/svg" xmlns:xlink="http://www.w3.org/1999/xlink" viewBox="0 0 1080 1080"><defs><style>.cls-1{isolation:isolate;}.cls-2{fill:none;stroke:#d31b23;stroke-miterlimit:10;stroke-width:2px;}.cls-19,.cls-3{fill:#d31b23;}.cls-4{fill:url(#linear-gradient);}.cls-5{fill:#0071b3;}.cls-6{fill:#29a2d9;}.cls-7{fill:#b88072;}.cls-8{fill:#8d4e3b;opacity:0.33;}.cls-11,.cls-16,.cls-18,.cls-19,.cls-8{mix-blend-mode:multiply;}.cls-9{fill:#1a1a1a;}.cls-10{fill:#a81a24;}.cls-11{fill:#4d4d4d;opacity:0.31;}.cls-12{fill:#212020;}.cls-13{fill:#7061d2;}.cls-14{fill:#4c31a6;}.cls-15{fill:#624cc3;}.cls-16{opacity:0.08;}.cls-17{fill:#c32e57;}.cls-18{opacity:0.32;}.cls-19{opacity:0.58;}</style><linearGradient id="linear-gradient" x1="330.38" y1="520.64" x2="724.31" y2="520.64" gradientUnits="userSpaceOnUse"><stop offset="0" stop-color="#fc9d4a"/><stop offset="0.28" stop-color="#f7874e"/><stop offset="0.85" stop-color="#ea4e57"/><stop offset="1" stop-color="#e73e5a"/></linearGradient></defs><title>eventpady extra design</title><g class="cls-1"><g id="Layer_1" data-name="Layer 1"><path d="M177.18,792l3.86-4c1,1.45,2.82,2.9,2.81,4.34s-1.82,2.89-2.84,4.33Z"/><circle class="cls-2" cx="24.7" cy="420.64" r="8.05"/><circle class="cls-2" cx="888.14" cy="781.91" r="19.41"/><rect class="cls-3" x="265.47" y="732.26" width="2.63" height="23.54" transform="matrix(0.79, 0.61, -0.61, 0.79, 509.87, -8.08)"/><rect class="cls-3" x="265.47" y="732.26" width="2.63" height="23.54" transform="translate(1018.9 987.11) rotate(127.64)"/></g><g id="Layer_5" data-name="Layer 5"><polygon class="cls-3" points="716.37 630.26 712.43 634.79 712.16 634.54 716.21 630.13 716.37 630.26"/><polygon class="cls-3" points="704.14 643.71 695.58 652.36 694.9 651.65 703.66 643.23 704.14 643.71"/><polygon class="cls-3" points="686.73 660.73 677.65 668.85 676.77 667.82 685.95 659.86 686.73 660.73"/><polygon class="cls-3" points="668.34 676.71 658.79 684.27 657.82 683 667.39 675.53 668.34 676.71"/><polygon class="cls-3" points="649.01 691.54 639.02 698.52 638.04 697.07 648.04 690.19 649.01 691.54"/><polygon class="cls-3" points="628.78 705.15 618.3 711.38 617.45 709.89 627.84 703.64 628.78 705.15"/><polygon class="cls-3" points="607.6 717.21 596.64 722.57 596.01 721.23 606.83 715.75 607.6 717.21"/><polygon class="cls-3" points="585.47 727.44 574.08 731.79 573.71 730.77 584.97 726.25 585.47 727.44"/><polygon class="cls-3" points="562.49 735.57 550.73 738.75 550.55 738.02 562.23 734.72 562.49 735.57"/><polygon class="cls-3" points="538.81 741.28 526.76 743.07 526.68 742.47 538.69 740.62 538.81 741.28"/><path class="cls-3" d="M514.62,744.14q-6.08.33-12.18.22v-.73q6.07.13,12.14-.16Z"/><path class="cls-3" d="M490.26,743.74q-6.07-.53-12.1-1.51l.17-1q6,1.05,12,1.66Z"/><path class="cls-3" d="M466.2,739.82q-5.93-1.43-11.75-3.31l.41-1.26q5.74,1.93,11.62,3.43Z"/><polygon class="cls-3" points="442.97 732.34 431.82 727.35 432.54 725.89 443.54 730.97 442.97 732.34"/><polygon class="cls-3" points="421.03 721.61 410.65 715.16 411.69 713.61 421.93 720.07 421.03 721.61"/><polygon class="cls-3" points="400.69 708.09 391.14 700.46 392.44 698.93 401.86 706.54 400.69 708.09"/><polygon class="cls-3" points="382.01 692.35 373.29 683.8 374.81 682.33 383.43 690.84 382.01 692.35"/><polygon class="cls-3" points="364.99 674.86 357.05 665.59 358.64 664.27 366.55 673.47 364.99 674.86"/><polygon class="cls-3" points="349.47 656.02 342.23 646.21 343.87 645.05 351.09 654.79 349.47 656.02"/><polygon class="cls-3" points="335.34 636.16 328.75 625.9 330.26 624.95 336.92 635.1 335.34 636.16"/><polygon class="cls-3" points="322.44 615.47 316.41 604.89 317.74 604.14 323.87 614.63 322.44 615.47"/><polygon class="cls-3" points="310.64 594.17 305.12 583.31 306.14 582.8 311.83 593.53 310.64 594.17"/><polygon class="cls-3" points="299.82 572.35 294.77 561.28 295.36 561.01 300.67 571.94 299.82 572.35"/><polygon class="cls-3" points="289.87 550 287.55 544.47 287.74 544.39 290.19 549.86 289.87 550"/><path class="cls-4" d="M501.65,356.71c-32.44-15-102.45-34.25-147.87,49.08-33.5,61.47-30.66,136.26,6.1,195.84,47.79,77.45,141.87,159.71,296.71,22.52,0,0,168-254.32-25.23-243.36a162.24,162.24,0,0,0-45.67,9.61c-14.28,5.14-39.22,8.75-60.25-15.79A70,70,0,0,0,501.65,356.71Z"/><path class="cls-5" d="M533,546.4l39.64-64.11a18,18,0,0,1,15.26-8.55h32.69a5.24,5.24,0,0,1,4.25,8.23l-43.09,62.56Z"/><path class="cls-6" d="M538.09,544.43l37-59.23a16.81,16.81,0,0,1,14.26-7.9h30.53a4.84,4.84,0,0,1,4,7.6l-40.24,57.8Z"/><path class="cls-7" d="M495.53,559.1s10.48-12.45,15.66-15.41,15.55-3.21,19-2.47,15.41,6.17,15.41,6.17L508,559.1Z"/><path class="cls-7" d="M469.48,411.9l-17.19,9.38-3.79,10.37,6.91,8.39,2.68,7.28.09,8.14a42.15,42.15,0,0,1-3.7,5.46c-1.76,2-10.24,10.06-10.24,10.06l-.34,1.73,15.7,20.39,11.23,4.07,5.43-4.57,1.36-12.22.86-4.2s.13-18.39,5.81-15.18,11.6,6.66,14.31-.25,5.12-8.45,5.68-27.89l.48-16.85.44-15.54s-1.48-.46-5.55,0a51.33,51.33,0,0,0-9.44,2.41l-10.55,8.24Z"/><path class="cls-8" d="M504.3,430.29s-.21-16.84-4.47-19.25-8.7,7.4-13.14,8.14-14.44,3.89-16.47,8.7-1.3,8.88,2.41,13.88,18.08,29.12,27.27,15.95c0,0-2.11,9.7-9.64,6.33s-9.81-5.11-10.73,2-1,11.24-1,11.24,0-12.4-3.93-14.62-7.65-2-8.21-6.29a34.9,34.9,0,0,0-2.78-8.88s4.44,10-2.22,13.7-19.16,8.32-8.51,16.1,12.77,8.7,12.77,8.7l-16.91-3.33-4.78-8.93.34-2.76,7.1-7s6.48-9.81,6.66-10.55.74-9.44.74-9.44L448.5,431.64s7.1-9.13,7.47-9.69,18.59-8.51,18.59-8.51l29.75-13.16.9,9.46Z"/><path class="cls-3" d="M446.15,469.16c-8,.42-16.42,1.16-24.14,3.53-9.48,2.92-11.66,13.07-14.57,21.69-5.54,16.41-7.24,32.62-8.1,49.8-.47,9.29-3.32,22.66,2,31.1,2.89,4.58,8.21,6,13.33,6.2,1.06.05,16.5-.77,16.53-.55,0-.21-8.41.54-8.91,1.15-1.53,1.87-1.32,8.53-1.82,10.94-.67,3.21-.41,9.62-3.21,11.82A45.4,45.4,0,0,1,428.2,593c15.88-12,34.61-20.22,53-27.37,6.65-2.58,13.46-4.71,20.11-7.27,3.62-1.39,3.92-1.85,3.57-5.85a11.55,11.55,0,0,0-1.78-5.67c-1-1.38-2.85-2-3.46-3.32-1.95-4.1,2.31-6.09,4.08-8.55,3.08-4.27,2.58-11.66,1.57-16.45-1.64-7.77-6.28-15.08-9.46-22.32-2.07-4.7-3.7-10.19-6.52-14.51-1.49-2.29-7.45-7.83-10.72-7-1.91.46-4.44,6.74-5.61,8.55-2.22,3.44-2.27,4.87-6,3.36C459.62,483.58,447.47,478.2,446.15,469.16Z"/><path class="cls-9" d="M504.27,432.88s-1.11-17.4,8.51-27,3.7-17.77-13-16.29-42.2,17-49.24,25.54-16.29,15.92-7.4,20.73,15.55,7,12.59,16.29-9.63,17-9.63,17,14.44-8.51,14.81-20-2.68-10.18-6-15.18-1.11-12,5.37-7.31,4.81,7.4,4.81,7.4a16.51,16.51,0,0,1,8.7-12.22c8-4.16,10.64-4.81,13.14-8.51s11-10.83,14.07-5.18S504.46,416.4,504.27,432.88Z"/><path class="cls-7" d="M536.11,714.78s-9.63,4.63-11.85,10.37-5,31.84-5,31.84l1.85,14.07,3.15,8.51,5.92-5,3.37-9.11,4-18.53s3.09-25.34,10.55-30Z"/><path class="cls-7" d="M663.46,699c0,1.11,2.59,14.87,3.89,17.89s27.76,21,27.76,21l28.32,11.48-11-17.11S692,715,690.67,713.86,672.58,702.21,673.45,694,663.46,699,663.46,699Z"/><path class="cls-10" d="M422,581.19s-2.49,20.34-3.72,22.07,6.53-10.95,42.56-29C460.84,574.29,425.55,580.77,422,581.19Z"/><path class="cls-3" d="M532.42,716.94s-7.78,9-7.54,18.14-.37,43.56,4.94,37.27,7-23.94,7.4-24.68l.37-.74s-7.77,41-14.19,46.52-9.25-29.37-8.64-37.27-1.89-22.34-.08-24.06S522.31,718.79,532.42,716.94Z"/><path class="cls-11" d="M421.85,653.89s5.73,11,44.27,18.89,85.23-9,87.87-14.54-18-5.26-47.89-8-56.94-7.61-64.65-3.65S421.85,653.89,421.85,653.89Z"/><path class="cls-3" d="M664.94,707.56s.74,13.51,3.33,16.84,2,4.44,14.44,11.11,31.65,15.73,35.54,16.66,12.77.93,8.33-4.81-22.4-24.25-35.91-33.5c0,0,28.32,24.25,20.18,23.51s-27.59-10.92-32.49-14.25S666.35,710.6,664.94,707.56Z"/><path class="cls-12" d="M526.86,712.37c7.13,2.81,14.24,6.22,21.55,8.49,3.7,1.15,2.86,1.19,4.44-2.36q8.05-18.13,16.12-36.26,23.84-53.59,47.84-107.11c2.58-5.71,10.65-16.8,8.66-23.35-2.69-8.88-13.71-15.21-21.78-17.89-3-1-14.41-4.62-17.27-2.36-.78.62-1.18,3.12-1.54,4.06-10.79,28.49-23,56.78-32.48,85.71C542.57,651.16,535.35,682.11,526.86,712.37Z"/><polygon class="cls-3" points="741.69 519.5 728.43 551.34 743.16 552.49 745.15 546.4 741.69 519.5"/><polygon class="cls-13" points="273.7 485.94 289 466.69 301.59 466.69 285.79 452.87 277.82 457.31 273.7 485.94"/><polygon class="cls-3" points="706.4 540.87 745.15 546.4 759.71 546.4 793.03 544.43 719.73 624.14 706.4 540.87"/><polygon class="cls-10" points="741.69 519.5 745.15 546.4 719.73 624.14 759.71 546.4 741.69 519.5"/><polygon class="cls-14" points="233.47 444.72 326.27 391.42 314.42 475.82 296.52 466.77 277.82 457.31 233.47 444.72"/><polygon class="cls-15" points="326.27 391.42 266.79 454.35 273.7 485.94 277.82 457.31 326.27 391.42"/><path class="cls-16" d="M532.42,714.66s.73-21.41,8.87-39.18,11.35-55.53,21.22-64.41,13.33-17.52,15.79-12.09,11.85,7.9,8.88,18.76,6.57,8.76.57,22.24l-6,13.48L600,614.52l-20.65-30.36-7.24-5.68-16.47,33.17s-28.45,91.71-28.82,100.71Z"/><path class="cls-10" d="M435.91,513.33l-8.14,42.94s76.73-6.29,77.14-3.74c0,0-.14-5.39-3.42-7.2,0,0-61.63,4.48-67.31,5.76Z"/><path class="cls-12" d="M657.29,707.56c3.39-2,19.88-8.63,21.06-12.34.77-2.42-6.26-12.71-7.43-15.08l-30.32-61.5c-5.73-11.63-11.75-23.1-17.76-34.58-7.36-14.06-15.76-41.86-30.1-50.15-16.53-9.55-53.56,9.62-69.1,15-28.9,10.08-57.93,20.55-84,36.9-13.43,8.43-24.8,15.35-26.54,31.76-1.85,17.43,3.68,36.48,20.25,44.87,17.21,8.71,37.21,5.57,53.86-2.25,34.11-16,64.12-41.54,91.07-67.43C601.59,632.59,626.85,672.78,657.29,707.56Z"/><path class="cls-17" d="M497.86,540.87c-14.68-7.26-31.52-1.08-31.52-1.08a36.56,36.56,0,0,1-6.42,2.32,72.24,72.24,0,0,0,11.78-3.17c6.48-2.41,9.63.56,18.51.85s9.46,3.75,9.46,3.75l-.44-2.68a1.9,1.9,0,0,1,.36-1.08,6.16,6.16,0,0,1,1.16-1.64c1.06-1.12,2.11-2.11,2.11-2.11A24.33,24.33,0,0,0,497.86,540.87Z"/><path class="cls-17" d="M452.5,543.09a30.62,30.62,0,0,0,7.41-1,54.87,54.87,0,0,1-7.45.84Z"/><path class="cls-18" d="M578.31,592.8S434.89,725,413.44,615.46c0,0-7,32.61,18,45.94S495.14,672.52,578.31,592.8Z"/><path class="cls-19" d="M711.69,419.27c70.1,50.24,27.7-72.62,0-100.33s-38.44,51.41-100.33,0-27.7,72.62,0,100.33S641.59,369,711.69,419.27Z"/></g></g></svg>